<svg width="54" height="14" fill="none" xmlns="http://www.w3.org/2000/svg"><path d="M10.335.368c.222 0 .402.076.542.228.152.14.228.32.228.542a.74.74 0 01-.228.543.705.705 0 01-.542.227H6.572v10.5a.761.761 0 01-.227.56c-.14.14-.32.21-.542.21-.21 0-.391-.07-.543-.21a.761.761 0 01-.228-.56v-10.5H1.27a.74.74 0 01-.542-.227.74.74 0 01-.228-.543C.5.916.576.736.728.596A.74.74 0 011.27.368h9.065zM16.908.368c.886 0 1.72.17 2.502.508.793.338 1.482.799 2.065 1.382a6.342 6.342 0 011.4 2.065c.338.782.508 1.616.508 2.503a6.259 6.259 0 01-.665 2.87 6.498 6.498 0 01-1.803 2.204l-.035.035c-.56.42-1.172.753-1.837.998a6.404 6.404 0 01-2.135.35c-.887 0-1.721-.17-2.503-.508a6.753 6.753 0 01-2.065-1.382 6.536 6.536 0 01-1.382-2.047 6.276 6.276 0 01-.508-2.52c0-.98.198-1.885.595-2.713.397-.84.94-1.557 1.628-2.152l.07-.07c.011 0 .029-.012.052-.035A6.333 6.333 0 0114.685.77c.7-.269 1.44-.403 2.223-.403zm0 11.375c.443 0 .863-.053 1.26-.158a5.586 5.586 0 001.155-.472L13.18 3.641a4.915 4.915 0 00-.875 1.47 4.664 4.664 0 00-.315 1.715c0 .676.128 1.312.385 1.907s.607 1.12 1.05 1.575c.455.443.98.793 1.575 1.05s1.23.385 1.908.385zm3.622-1.593c.408-.443.723-.944.945-1.504.233-.572.35-1.179.35-1.82a4.814 4.814 0 00-1.453-3.465 4.813 4.813 0 00-3.464-1.453c-.467 0-.916.064-1.348.193a4.46 4.46 0 00-1.207.525l6.177 7.524zM30.351 7.63a.763.763 0 01-.595-.28l-4.497-5.774a.714.714 0 01-.158-.543.722.722 0 01.28-.507.658.658 0 01.543-.14c.21.023.379.116.507.28l3.92 5.005L34.184.753a.709.709 0 01.49-.28.74.74 0 01.56.158.721.721 0 01.28.507.713.713 0 01-.158.543l-4.41 5.67a.73.73 0 01-.595.28zm4.918 5.635a1.572 1.572 0 01-.56-.105 3.865 3.865 0 01-.42-.227 2.376 2.376 0 01-.42-.42L30.35 7.981l-3.832 4.934a.721.721 0 01-.508.28.714.714 0 01-.543-.157.709.709 0 01-.28-.49.741.741 0 01.158-.56l4.41-5.67a.682.682 0 01.578-.28c.256 0 .46.093.612.28l4.095 5.25c.058.082.11.134.158.158l.105.052c.198 0 .361.07.49.21.14.128.215.292.227.49a.657.657 0 01-.175.543.744.744 0 01-.525.244h-.052zM39.734 13.265a.761.761 0 01-.56-.227.761.761 0 01-.227-.56V1.103c0-.21.076-.39.227-.542a.761.761 0 01.56-.228c.21 0 .391.076.543.228a.74.74 0 01.227.542v11.375a.761.761 0 01-.227.56.74.74 0 01-.543.227zM52.938 13.23a.685.685 0 01-.595-.297l-7.298-9.59v9.135a.74.74 0 01-.227.543.712.712 0 01-.525.21.75.75 0 01-.753-.753V1.121c0-.164.047-.31.14-.438a.696.696 0 01.385-.262.678.678 0 01.455-.018.79.79 0 01.385.263l7.28 9.607V1.121c0-.199.07-.374.21-.525a.74.74 0 01.543-.228c.21 0 .385.076.525.228a.721.721 0 01.227.525v11.357c0 .163-.046.31-.14.438a.8.8 0 01-.367.28 1.48 1.48 0 01-.245.034z" fill="#1F2041"/></svg>